DBRep_DrawableShape

CASCADE Topology V1, (c) Matra-Datavision
Locations 0
Curve2ds 30
1 0 3 1 0 
2 0 0 1 0 -0 1 2
1 6.2831853071795862 -0 0 1 
1 0 -0 0 1 
1 0 0 1 0 
2 0 0 1 0 -0 1 2
1 0 0 1 0 
1 0 0 1 0 
1 4 0 0 -1 
1 0 0 0 1 
1 0 -3 1 0 
1 0 0 1 0 
1 0 0 0 -1 
1 0 0 0 1 
1 0 0 1 0 
1 0 2 1 0 
1 4 0 0 -1 
1 2 0 0 1 
1 0 -3 1 0 
1 0 2 1 0 
1 0 0 0 -1 
1 2 0 0 1 
1 0 0 0 1 
1 0 0 1 0 
1 4 0 0 1 
1 0 0 1 0 
1 0 0 0 1 
1 0 3 1 0 
1 4 0 0 1 
1 0 3 1 0 
Curves 15
2 0 0 3 0 0 1 1 0 -0 -0 1 0 2
1 2 -4.8985871965894128e-16 0 0 0 1 
2 0 0 0 0 0 1 1 0 -0 -0 1 0 2
1 0 0 0 0 0 1 
1 0 0 4 -0 1 0 
1 0 3 0 0 0 1 
1 0 0 0 -0 1 0 
1 2 0 0 0 0 1 
1 2 0 4 0 1 0 
1 2 3 0 0 0 1 
1 2 0 0 -0 1 0 
1 0 0 0 1 0 -0 
1 0 0 4 1 0 -0 
1 0 3 0 1 0 -0 
1 0 3 4 1 0 -0 
Polygon3D 0
PolygonOnTriangulations 0
Surfaces 9
2 0 0 0 0 0 1 1 0 -0 -0 1 0 2
1 0 0 3 0 0 1 1 0 -0 -0 1 0 
1 0 0 0 0 0 1 1 0 -0 -0 1 0 
1 0 0 0 1 0 -0 0 0 1 0 -1 0 
1 0 0 0 -0 1 0 0 0 1 1 0 -0 
1 0 0 4 0 0 1 1 0 -0 -0 1 0 
1 0 3 0 -0 1 0 0 0 1 1 0 -0 
1 0 0 0 0 0 1 1 0 -0 -0 1 0 
1 2 0 0 1 0 -0 0 0 1 0 -1 0 
Triangulations 0

TShapes 48
Ve
1e-07
2 -4.89858719658941e-16 3
0 0

0101101
*
Ed
 1e-07 1 1 0
1  1 0 0 6.28318530717959
2  1 1 0 0 6.28318530717959
2  2 2 0 0 6.28318530717959
0

0101100
+48 0 -48 0 *
Ve
1e-07
2 -4.89858719658941e-16 0
0 0

0101101
*
Ed
 1e-07 1 1 0
1  2 0 0 3
3  3 4CN 1 0 0 3
0

0101000
-48 0 +46 0 *
Ed
 1e-07 1 1 0
1  3 0 0 6.28318530717959
2  5 1 0 0 6.28318530717959
2  6 3 0 0 6.28318530717959
0

0101100
+46 0 -46 0 *
Wi

0101000
-47 0 +45 0 +44 0 -45 0 *
Fa
0  1e-07 1 0

0101000
+43 0 *
Wi

0101000
+47 0 *
Fa
0  1e-07 2 0

0101000
+41 0 *
Wi

0101000
-44 0 *
Fa
0  1e-07 3 0

0101000
-39 0 *
Sh

0101100
+42 0 +40 0 -38 0 *
So

0100100
+37 0 *
Ve
1e-07
0 0 4
0 0

0101101
*
Ve
1e-07
0 0 0
0 0

0101101
*
Ed
 1e-07 1 1 0
1  4 0 0 4
2  7 4 0 0 4
2  8 5 0 0 4
0

0101000
-35 0 +34 0 *
Ve
1e-07
0 3 4
0 0

0101101
*
Ed
 1e-07 1 1 0
1  5 0 0 3
2  9 4 0 0 3
2  10 6 0 0 3
0

0101000
-32 0 +35 0 *
Ve
1e-07
0 3 0
0 0

0101101
*
Ed
 1e-07 1 1 0
1  6 0 0 4
2  11 4 0 0 4
2  12 7 0 0 4
0

0101000
-32 0 +30 0 *
Ed
 1e-07 1 1 0
1  7 0 0 3
2  13 4 0 0 3
2  14 8 0 0 3
0

0101000
-30 0 +34 0 *
Wi

0101000
-33 0 -31 0 +29 0 +28 0 *
Fa
0  1e-07 4 0

0101000
+27 0 *
Ve
1e-07
2 0 4
0 0

0101101
*
Ve
1e-07
2 0 0
0 0

0101101
*
Ed
 1e-07 1 1 0
1  8 0 0 4
2  15 9 0 0 4
2  16 5 0 0 4
0

0101000
-25 0 +24 0 *
Ve
1e-07
2 3 4
0 0

0101101
*
Ed
 1e-07 1 1 0
1  9 0 0 3
2  17 9 0 0 3
2  18 6 0 0 3
0

0101000
-22 0 +25 0 *
Ve
1e-07
2 3 0
0 0

0101101
*
Ed
 1e-07 1 1 0
1  10 0 0 4
2  19 9 0 0 4
2  20 7 0 0 4
0

0101000
-22 0 +20 0 *
Ed
 1e-07 1 1 0
1  11 0 0 3
2  21 9 0 0 3
2  22 8 0 0 3
0

0101000
-20 0 +24 0 *
Wi

0101000
-23 0 -21 0 +19 0 +18 0 *
Fa
0  1e-07 9 0

0101000
+17 0 *
Ed
 1e-07 1 1 0
1  12 0 0 2
2  23 5 0 0 2
2  24 8 0 0 2
0

0101000
-24 0 +34 0 *
Ed
 1e-07 1 1 0
1  13 0 0 2
2  25 5 0 0 2
2  26 6 0 0 2
0

0101000
-25 0 +35 0 *
Wi

0101000
-15 0 -23 0 +14 0 +33 0 *
Fa
0  1e-07 5 0

0101000
+13 0 *
Ed
 1e-07 1 1 0
1  14 0 0 2
2  27 7 0 0 2
2  28 8 0 0 2
0

0101000
-20 0 +30 0 *
Ed
 1e-07 1 1 0
1  15 0 0 2
2  29 7 0 0 2
2  30 6 0 0 2
0

0101000
-22 0 +32 0 *
Wi

0101000
-11 0 -19 0 +10 0 +29 0 *
Fa
0  1e-07 7 0

0101000
+9 0 *
Wi

0101000
-28 0 -11 0 +18 0 +15 0 *
Fa
0  1e-07 8 0

0101000
+7 0 *
Wi

0101000
-31 0 -10 0 +21 0 +14 0 *
Fa
0  1e-07 6 0

0101000
+5 0 *
Sh

0101100
-26 0 +16 0 -12 0 +8 0 -6 0 +4 0 *
So

0100000
+3 0 *
Co

1100000
+36 0 +2 0 *

+1 0 