DBRep_DrawableShape

CASCADE Topology V1, (c) Matra-Datavision
Locations 1
1
              1               0               0               0 
              0               1               0               0 
              0               0               1         411.075 
Curve2ds 56
1 0 0 1 0 
1 0 -1278.9000000000003 0 1 
1 511.56000000000017 0 0 -1 
1 511.56000000000017 -324.80000000000013 1 0 
1 1729.5600000000002 -324.80000000000013 0 1 
1 1729.5600000000002 0 1 0 
1 2241.1200000000003 0 0 -1 
1 2241.1200000000003 -1278.9000000000003 -1 0 
1 1729.5600000000002 -1278.9000000000003 0 1 
1 1729.5600000000002 -629.30000000000018 -1 0 
1 511.56000000000017 -629.30000000000018 0 -1 
1 511.56000000000017 -1278.9000000000003 -1 0 
1 0 0 1 0 
2 0 0 1 0 -0 1 7
2 1922.8400000000001 -84.904245794169697 1 0 -0 1 7
1 0 0 1 0 
2 0 0 1 0 -0 1 7
2 1922.8400000000001 -869.19575420583055 1 0 -0 1 7
2 -0 0 1 0 -0 1 7
2 318.28000000000009 -869.19575420583055 -1 -0 -0 1 7
2 -0 0 1 0 -0 1 7
2 318.28000000000009 -84.904245794169697 -1 -0 -0 1 7
1 0 0 1 0 
2 -0 0 1 0 -0 1 7
2 193.28000000000009 -869.19575420583055 -1 -0 -0 1 7
1 0 0 1 0 
2 -0 0 1 0 -0 1 7
2 193.28000000000009 -84.904245794169697 -1 -0 -0 1 7
2 0 0 1 0 -0 1 7
2 2047.8400000000001 -869.19575420583055 1 0 -0 1 7
2 0 0 1 0 -0 1 7
2 2047.8400000000001 -84.904245794169697 1 0 -0 1 7
1 0 0 1 0 
1 0 0 1 0 
1 30 0 0 -1 
1 0 0 0 1 
1 0 -33.83218271579716 1 0 
1 0 0 1 0 
1 0 0 0 -1 
1 0 0 0 1 
1 0 0 1 0 
1 0 137.5 1 0 
1 30 0 0 -1 
1 137.5 0 0 1 
1 0 -33.83218271579716 1 0 
1 0 137.5 1 0 
1 0 0 0 -1 
1 137.5 0 0 1 
1 0 0 0 1 
1 0 0 1 0 
1 30 0 0 1 
1 0 0 1 0 
1 0 0 0 1 
1 0 33.83218271579716 1 0 
1 30 0 0 1 
1 0 33.83218271579716 1 0 
Curves 44
1 -1120.5600000000002 477.05000000000018 0 0 0 1 
1 -609 477.05000000000013 0 0 0 1 
1 -1120.5600000000002 477.05000000000013 0 1 0 0 
1 -1120.5600000000002 -801.85000000000014 0 0 0 1 
1 -1120.5600000000002 -801.85000000000014 0 0 1 0 
1 -609 152.25 0 0 0 1 
1 -609 477.05000000000013 0 0 -1 0 
1 -609 152.25 0 1 0 0 
1 609 152.25 0 0 1 0 
1 609 477.05000000000013 0 1 0 0 
1 1120.5600000000002 477.05000000000013 0 0 -1 0 
1 1120.5600000000002 -801.85000000000014 0 -1 0 0 
1 609 -801.85000000000014 0 0 1 0 
1 609 -152.25 0 -1 0 0 
1 -609 -152.25 0 0 -1 0 
1 -609 -801.85000000000014 0 -1 0 0 
2 802.28000000000009 392.14575420583043 411.0750000000001 0 0 1 1 0 -0 -0 1 0 7
2 802.28000000000009 -392.14575420583043 411.0750000000001 0 0 1 1 0 -0 -0 1 0 7
2 -802.28000000000009 -392.14575420583043 411.0750000000001 0 0 -1 -1 -0 -0 -0 1 -0 7
2 -802.28000000000009 392.14575420583043 411.0750000000001 0 0 -1 -1 -0 -0 -0 1 -0 7
2 -927.28000000000009 -392.14575420583043 411.0750000000001 0 0 -1 -1 -0 -0 -0 1 -0 7
2 -927.28000000000009 392.14575420583043 411.0750000000001 0 0 -1 -1 -0 -0 -0 1 -0 7
2 927.28000000000009 -392.14575420583043 411.0750000000001 0 0 1 1 0 -0 -0 1 0 7
2 927.28000000000009 392.14575420583043 411.0750000000001 0 0 1 1 0 -0 -0 1 0 7
1 -609 -801.85000000000014 0 0 0 1 
1 609 152.25 0 0 0 1 
1 609 477.05000000000013 0 0 0 1 
1 1120.5600000000002 477.05000000000013 0 0 0 1 
1 1120.5600000000002 -801.85000000000014 0 0 0 1 
1 609 -801.85000000000014 0 0 0 1 
1 609 -152.25 0 0 0 1 
1 -609 -152.25 0 0 0 1 
1 864.78000000000009 392.14575420583043 411.0750000000001 0 0 1 
1 864.78000000000009 392.14575420583043 441.0750000000001 -0 1 0 
1 864.78000000000009 425.97793692162759 411.0750000000001 0 0 1 
1 864.78000000000009 392.14575420583043 411.0750000000001 -0 1 0 
1 1002.2800000000001 392.14575420583043 411.0750000000001 0 0 1 
1 1002.2800000000001 392.14575420583043 441.0750000000001 0 1 0 
1 1002.2800000000001 425.97793692162759 411.0750000000001 0 0 1 
1 1002.2800000000001 392.14575420583043 411.0750000000001 -0 1 0 
1 864.78000000000009 392.14575420583043 411.0750000000001 1 0 -0 
1 864.78000000000009 392.14575420583043 441.0750000000001 1 0 -0 
1 864.78000000000009 425.97793692162759 411.0750000000001 1 0 -0 
1 864.78000000000009 425.97793692162759 441.0750000000001 1 0 -0 
Polygon3D 0
PolygonOnTriangulations 0
Surfaces 35
1 -1120.5600000000002 477.05000000000013 0 0 1 0 1 0 0 0 0 -1 
1 -1120.5600000000002 477.05000000000013 0 -0 0 1 1 0 0 0 1 -0 
1 -1120.5600000000002 -801.85000000000014 0 -1 0 0 0 1 0 0 0 -1 
1 -609 477.05000000000013 0 1 0 -0 0 -1 0 0 -0 -1 
2 802.28000000000009 392.14575420583043 411.0750000000001 0 0 1 1 0 -0 -0 1 0 7
1 802.28000000000009 392.14575420583043 411.0750000000001 0 0 1 1 0 -0 -0 1 0 
2 802.28000000000009 -392.14575420583043 411.0750000000001 0 0 1 1 0 -0 -0 1 0 7
1 802.28000000000009 -392.14575420583043 411.0750000000001 0 0 1 1 0 -0 -0 1 0 
2 -802.28000000000009 -392.14575420583043 411.0750000000001 -0 -0 1 -1 -0 -0 -0 1 -0 7
1 -802.28000000000009 -392.14575420583043 411.0750000000001 -0 -0 1 -1 -0 -0 -0 1 -0 
2 -802.28000000000009 392.14575420583043 411.0750000000001 -0 -0 1 -1 -0 -0 -0 1 -0 7
1 -802.28000000000009 392.14575420583043 411.0750000000001 -0 -0 1 -1 -0 -0 -0 1 -0 
2 -927.28000000000009 -392.14575420583043 411.0750000000001 -0 -0 1 -1 -0 -0 -0 1 -0 7
1 -927.28000000000009 -392.14575420583043 411.0750000000001 -0 -0 1 -1 -0 -0 -0 1 -0 
2 -927.28000000000009 392.14575420583043 411.0750000000001 -0 -0 1 -1 -0 -0 -0 1 -0 7
1 -927.28000000000009 392.14575420583043 411.0750000000001 -0 -0 1 -1 -0 -0 -0 1 -0 
2 927.28000000000009 -392.14575420583043 411.0750000000001 0 0 1 1 0 -0 -0 1 0 7
1 927.28000000000009 -392.14575420583043 411.0750000000001 0 0 1 1 0 -0 -0 1 0 
2 927.28000000000009 392.14575420583043 411.0750000000001 0 0 1 1 0 -0 -0 1 0 7
1 927.28000000000009 392.14575420583043 411.0750000000001 0 0 1 1 0 -0 -0 1 0 
1 -609 -801.85000000000014 0 0 -1 0 -1 0 0 -0 -0 -1 
1 -609 152.25 0 0 1 0 1 0 0 0 0 -1 
1 609 152.25 0 -1 0 0 0 1 0 0 0 -1 
1 609 477.05000000000013 0 0 1 0 1 0 0 0 0 -1 
1 1120.5600000000002 477.05000000000013 0 1 0 -0 0 -1 0 0 -0 -1 
1 1120.5600000000002 -801.85000000000014 0 0 -1 0 -1 0 0 -0 -0 -1 
1 609 -801.85000000000014 0 -1 0 0 0 1 0 0 0 -1 
1 609 -152.25 0 0 -1 0 -1 0 0 -0 -0 -1 
1 -609 -152.25 0 1 0 -0 0 -1 0 0 -0 -1 
1 864.78000000000009 392.14575420583043 411.0750000000001 1 0 -0 0 0 1 0 -1 0 
1 864.78000000000009 392.14575420583043 411.0750000000001 -0 1 0 0 0 1 1 0 -0 
1 864.78000000000009 392.14575420583043 441.0750000000001 0 0 1 1 0 -0 -0 1 0 
1 864.78000000000009 425.97793692162759 411.0750000000001 -0 1 0 0 0 1 1 0 -0 
1 864.78000000000009 392.14575420583043 411.0750000000001 0 0 1 1 0 -0 -0 1 0 
1 1002.2800000000001 392.14575420583043 411.0750000000001 1 0 -0 0 0 1 0 -1 0 
Triangulations 0

TShapes 139
Ve
1.00000028421709e-007
-1120.56 477.05 0
0 0

0101101
*
Ed
 1.00000028421709e-007 1 1 0
1  1 0 0 411.075
0

0101000
+139 0 -139 1 *
Ve
1e-007
-609 477.05 0
0 0

0101101
*
Ed
 1e-007 1 1 0
1  2 0 0 411.075
0

0101000
+137 0 -137 1 *
Ed
 1e-007 1 1 0
1  3 0 0 511.56
2  1 2 0 0 511.56
0

0101000
+139 0 -137 0 *
Wi

0101000
+138 0 -136 0 -135 0 +135 1 *
Fa
0  1e-007 1 0

0111000
+134 0 *
Ve
1e-007
-1120.56 -801.85 0
0 0

0101101
*
Ed
 1e-007 1 1 0
1  4 0 0 411.075
0

0101000
+132 0 -132 1 *
Ed
 1e-007 1 1 0
1  5 0 0 1278.9
2  2 2 0 0 1278.9
0

0101000
+132 0 -139 0 *
Wi

0101000
+131 0 -138 0 -130 0 +130 1 *
Fa
0  1e-007 3 0

0101000
+129 0 *
Ve
1e-007
-609 152.25 0
0 0

0101101
*
Ed
 1e-007 1 1 0
1  6 0 0 411.075
0

0101000
+127 0 -127 1 *
Ed
 1e-007 1 1 0
1  7 0 0 324.8
2  3 2 0 0 324.8
0

0101000
+137 0 -127 0 *
Wi

0101000
+136 0 -126 0 -125 0 +125 1 *
Fa
0  1e-007 4 0

0101000
+124 0 *
Ve
1e-007
609 152.25 0
0 0

0101101
*
Ed
 1e-007 1 1 0
1  8 0 0 1218
2  4 2 0 0 1218
0

0101000
+127 0 -122 0 *
Ve
1e-007
609 477.05 0
0 0

0101101
*
Ed
 1e-007 1 1 0
1  9 0 0 324.8
2  5 2 0 0 324.8
0

0101000
+122 0 -120 0 *
Ve
1e-007
1120.56 477.05 0
0 0

0101101
*
Ed
 1e-007 1 1 0
1  10 0 0 511.56
2  6 2 0 0 511.56
0

0101000
+120 0 -118 0 *
Ve
1e-007
1120.56 -801.85 0
0 0

0101101
*
Ed
 1e-007 1 1 0
1  11 0 0 1278.9
2  7 2 0 0 1278.9
0

0101000
+118 0 -116 0 *
Ve
1e-007
609 -801.85 0
0 0

0101101
*
Ed
 1e-007 1 1 0
1  12 0 0 511.56
2  8 2 0 0 511.56
0

0101000
+116 0 -114 0 *
Ve
1e-007
609 -152.25 0
0 0

0101101
*
Ed
 1e-007 1 1 0
1  13 0 0 649.6
2  9 2 0 0 649.6
0

0101000
+114 0 -112 0 *
Ve
1e-007
-609 -152.25 0
0 0

0101101
*
Ed
 1e-007 1 1 0
1  14 0 0 1218
2  10 2 0 0 1218
0

0101000
+112 0 -110 0 *
Ve
1e-007
-609 -801.85 0
0 0

0101101
*
Ed
 1e-007 1 1 0
1  15 0 0 649.6
2  11 2 0 0 649.6
0

0101000
+110 0 -108 0 *
Ed
 1e-007 1 1 0
1  16 0 0 511.56
2  12 2 0 0 511.56
0

0101000
+108 0 -132 0 *
Wi

0101100
+135 0 +125 0 +121 0 +119 0 +117 0 +115 0 +113 0 +111 0 +109 0 +107 0 
+106 0 +130 0 *
Fa
0  1e-007 2 0

0101000
-105 0 *
Wi

0101000
-135 1 -130 1 -125 1 -106 1 -121 1 -107 1 -119 1 -109 1 -117 1 -111 1 
-115 1 -113 1 *
Ve
1e-007
809.28 392.14575420583 411.075
0 0

0101101
*
Ed
 1e-007 1 1 0
1  17 0 0 6.28318530717959
2  13 5 0 0 6.28318530717959
2  14 6 0 0 6.28318530717959
2  15 2 1 0 6.28318530717959
0

0101100
+102 0 -102 0 *
Wi

0101000
-101 0 *
Ve
1e-007
809.28 -392.14575420583 411.075
0 0

0101101
*
Ed
 1e-007 1 1 0
1  18 0 0 6.28318530717959
2  16 7 0 0 6.28318530717959
2  17 8 0 0 6.28318530717959
2  18 2 1 0 6.28318530717959
0

0101100
+99 0 -99 0 *
Wi

0101000
-98 0 *
Ve
1e-007
-809.28 -392.14575420583 411.075
0 0

0101101
*
Ed
 1e-007 1 1 0
1  19 0 0 6.28318530717959
2  16 9 0 0 6.28318530717959
2  19 10 0 0 6.28318530717959
2  20 2 1 0 6.28318530717959
0

0101100
+96 0 -96 0 *
Wi

0101000
+95 0 *
Ve
1e-007
-809.28 392.14575420583 411.075
0 0

0101101
*
Ed
 1e-007 1 1 0
1  20 0 0 6.28318530717959
2  13 11 0 0 6.28318530717959
2  21 12 0 0 6.28318530717959
2  22 2 1 0 6.28318530717959
0

0101100
+93 0 -93 0 *
Wi

0101000
+92 0 *
Ve
1e-007
-934.28 -392.14575420583 411.075
0 0

0101101
*
Ed
 1e-007 1 1 0
1  21 0 0 6.28318530717959
2  23 13 0 0 6.28318530717959
2  24 14 0 0 6.28318530717959
2  25 2 1 0 6.28318530717959
0

0101100
+90 0 -90 0 *
Wi

0101000
+89 0 *
Ve
1e-007
-934.28 392.14575420583 411.075
0 0

0101101
*
Ed
 1e-007 1 1 0
1  22 0 0 6.28318530717959
2  26 15 0 0 6.28318530717959
2  27 16 0 0 6.28318530717959
2  28 2 1 0 6.28318530717959
0

0101100
+87 0 -87 0 *
Wi

0101000
+86 0 *
Ve
1e-007
934.28 -392.14575420583 411.075
0 0

0101101
*
Ed
 1e-007 1 1 0
1  23 0 0 6.28318530717959
2  23 17 0 0 6.28318530717959
2  29 18 0 0 6.28318530717959
2  30 2 1 0 6.28318530717959
0

0101100
+84 0 -84 0 *
Wi

0101000
-83 0 *
Ve
1e-007
934.28 392.14575420583 411.075
0 0

0101101
*
Ed
 1e-007 1 1 0
1  24 0 0 6.28318530717959
2  26 19 0 0 6.28318530717959
2  31 20 0 0 6.28318530717959
2  32 2 1 0 6.28318530717959
0

0101100
+81 0 -81 0 *
Wi

0101000
-80 0 *
Fa
0  1e-007 2 1

0111000
+103 0 +100 0 +97 0 +94 0 +91 0 +88 0 +85 0 +82 0 +79 0 *
Ed
 1e-007 1 1 0
1  25 0 0 411.075
0

0101000
+108 0 -108 1 *
Wi

0101000
+77 0 -131 0 -106 0 +106 1 *
Fa
0  1e-007 21 0

0111000
+76 0 *
Ed
 1e-007 1 1 0
1  26 0 0 411.075
0

0101000
+122 0 -122 1 *
Wi

0101000
+126 0 -74 0 -121 0 +121 1 *
Fa
0  1e-007 22 0

0101000
+73 0 *
Ed
 1e-007 1 1 0
1  27 0 0 411.075
0

0101000
+120 0 -120 1 *
Wi

0101000
+74 0 -71 0 -119 0 +119 1 *
Fa
0  1e-007 23 0

0101000
+70 0 *
Ed
 1e-007 1 1 0
1  28 0 0 411.075
0

0101000
+118 0 -118 1 *
Wi

0101000
+71 0 -68 0 -117 0 +117 1 *
Fa
0  1e-007 24 0

0101000
+67 0 *
Ed
 1e-007 1 1 0
1  29 0 0 411.075
0

0101000
+116 0 -116 1 *
Wi

0101000
+68 0 -65 0 -115 0 +115 1 *
Fa
0  1e-007 25 0

0101000
+64 0 *
Ed
 1e-007 1 1 0
1  30 0 0 411.075
0

0101000
+114 0 -114 1 *
Wi

0101000
+65 0 -62 0 -113 0 +113 1 *
Fa
0  1e-007 26 0

0101000
+61 0 *
Ed
 1e-007 1 1 0
1  31 0 0 411.075
0

0101000
+112 0 -112 1 *
Wi

0101000
+62 0 -59 0 -111 0 +111 1 *
Fa
0  1e-007 27 0

0101000
+58 0 *
Ed
 1e-007 1 1 0
1  32 0 0 411.075
0

0101000
+110 0 -110 1 *
Wi

0101000
+59 0 -56 0 -109 0 +109 1 *
Fa
0  1e-007 28 0

0101000
+55 0 *
Wi

0101000
+56 0 -77 0 -107 0 +107 1 *
Fa
0  1e-007 29 0

0101000
+53 0 *
Wi

0101000
+101 0 *
Fa
0  1e-007 6 0

0101000
+51 0 *
Wi

0101000
+98 0 *
Fa
0  1e-007 8 0

0101000
+49 0 *
Wi

0101000
+95 0 *
Fa
0  1e-007 10 0

0111000
+47 0 *
Wi

0101000
+92 0 *
Fa
0  1e-007 12 0

0101000
+45 0 *
Wi

0101000
+89 0 *
Fa
0  1e-007 14 0

0101000
+43 0 *
Wi

0101000
+86 0 *
Fa
0  1e-007 16 0

0101000
+41 0 *
Wi

0101000
+83 0 *
Fa
0  1e-007 18 0

0101000
+39 0 *
Wi

0101000
+80 0 *
Fa
0  1e-007 20 0

0101000
+37 0 *
Sh

0101100
+133 0 +128 0 +123 0 -104 0 +78 0 +75 0 +72 0 +69 0 +66 0 +63 0 
+60 0 +57 0 +54 0 +52 0 +50 0 +48 0 -46 0 -44 0 -42 0 -40 0 
+38 0 +36 0 *
Ve
1e-007
864.78 392.14575420583 441.075
0 0

0101101
*
Ve
1e-007
864.78 392.14575420583 411.075
0 0

0101101
*
Ed
 1e-007 1 1 0
1  33 0 0 30
2  33 30 0 0 30
2  34 31 0 0 30
0

0101000
-34 0 +33 0 *
Ve
1e-007
864.78 425.977936921628 441.075
0 0

0101101
*
Ed
 1e-007 1 1 0
1  34 0 0 33.8321827157972
2  35 30 0 0 33.8321827157972
2  36 32 0 0 33.8321827157972
0

0101000
-31 0 +34 0 *
Ve
1e-007
864.78 425.977936921628 411.075
0 0

0101101
*
Ed
 1e-007 1 1 0
1  35 0 0 30
2  37 30 0 0 30
2  38 33 0 0 30
0

0101000
-31 0 +29 0 *
Ed
 1e-007 1 1 0
1  36 0 0 33.8321827157972
2  39 30 0 0 33.8321827157972
2  40 34 0 0 33.8321827157972
0

0101000
-29 0 +33 0 *
Wi

0101000
-32 0 -30 0 +28 0 +27 0 *
Fa
0  1e-007 30 0

0111000
+26 0 *
Ve
1e-007
1002.28 392.14575420583 441.075
0 0

0101101
*
Ve
1e-007
1002.28 392.14575420583 411.075
0 0

0101101
*
Ed
 1e-007 1 1 0
1  37 0 0 30
2  41 35 0 0 30
2  42 31 0 0 30
0

0101000
-24 0 +23 0 *
Ve
1e-007
1002.28 425.977936921628 441.075
0 0

0101101
*
Ed
 1e-007 1 1 0
1  38 0 0 33.8321827157972
2  43 35 0 0 33.8321827157972
2  44 32 0 0 33.8321827157972
0

0101000
-21 0 +24 0 *
Ve
1e-007
1002.28 425.977936921628 411.075
0 0

0101101
*
Ed
 1e-007 1 1 0
1  39 0 0 30
2  45 35 0 0 30
2  46 33 0 0 30
0

0101000
-21 0 +19 0 *
Ed
 1e-007 1 1 0
1  40 0 0 33.8321827157972
2  47 35 0 0 33.8321827157972
2  48 34 0 0 33.8321827157972
0

0101000
-19 0 +23 0 *
Wi

0101000
-22 0 -20 0 +18 0 +17 0 *
Fa
0  1e-007 35 0

0111000
+16 0 *
Ed
 1e-007 1 1 0
1  41 0 0 137.5
2  49 31 0 0 137.5
2  50 34 0 0 137.5
0

0101000
-23 0 +33 0 *
Ed
 1e-007 1 1 0
1  42 0 0 137.5
2  51 31 0 0 137.5
2  52 32 0 0 137.5
0

0101000
-24 0 +34 0 *
Wi

0101000
-14 0 -22 0 +13 0 +32 0 *
Fa
0  1e-007 31 0

0111000
+12 0 *
Ed
 1e-007 1 1 0
1  43 0 0 137.5
2  53 33 0 0 137.5
2  54 34 0 0 137.5
0

0101000
-19 0 +29 0 *
Ed
 1e-007 1 1 0
1  44 0 0 137.5
2  55 33 0 0 137.5
2  56 32 0 0 137.5
0

0101000
-21 0 +31 0 *
Wi

0101000
-10 0 -18 0 +9 0 +28 0 *
Fa
0  1e-007 33 0

0111000
+8 0 *
Wi

0101000
-27 0 -10 0 +17 0 +14 0 *
Fa
0  1e-007 34 0

0111000
+6 0 *
Wi

0101000
-30 0 -9 0 +20 0 +13 0 *
Fa
0  1e-007 32 0

0111000
+4 0 *
Sh

0101100
-25 0 +15 0 -11 0 +7 0 -5 0 +3 0 *
So

1100000
+35 0 +2 0 *

+1 0 